# xmcd
# Copyright (C) 1995-1998 Ti Kan
#
# Track frame offsets:
#       150
#       19525
#       36143
#       50039
#       66431
#       82092
#       101779
#       117464
#       134201
#       151457
#       167477
#       183091
#       198445
#       215800
#
# Disc length: 3067 seconds
#
# Revision: 0
# Processed by: cddbd v1.5.1PL0 Copyright (c) Steve Scherf et al.
# Submitted via: CD-Transfer v1.0
#
DISCID=d20bf90e
DTITLE=Verschiedene San Remo 2005 - Super San Remo 2005
DYEAR=05
DGENRE=
TTITLE0=Gigi D`alessio L´amore Che Non C´ É
TTITLE1=Alexia Da Grande
TTITLE2=Max De Angelis Sono Qui Per Questo
TTITLE3=Mattia Bazar Grido D´amore
TTITLE4=Sabrina Guida Vorrei
TTITLE5=Lola Ponce Sleep
TTITLE6=Paolo Meneguzzi Non Capiva Che L´amavo
TTITLE7=Le Vibrazioni Ovunque Andró
TTITLE8=Umberto Tozzi Le Parole
TTITLE9=Equ Lìdea
TTITLE10=Franco Califano Non Escludo Il Ritorno
TTITLE11=La Differenza Che Fará
TTITLE12=Paola E Chiara A Modo Mio
TTITLE13=Michael Bublé Sway
EXTD=
EXTT0=
EXTT1=
EXTT2=
EXTT3=
EXTT4=
EXTT5=
EXTT6=
EXTT7=
EXTT8=
EXTT9=
EXTT10=
EXTT11=
EXTT12=
EXTT13=
PLAYORDER=
